{
	"accessors": {
		"accessor_21": {
			"bufferView": "bufferView_1",
			"byteOffset": 0,
			"byteStride": 0,
			"componentType": 5123,
			"count": 36,
			"type": "SCALAR"
		},
		"accessor_23": {
			"bufferView": "bufferView_0",
			"byteOffset": 0,
			"byteStride": 0,
			"componentType": 5126,
			"count": 24,
			"max": [0.5, 0.5, 0.5],
			"min": [-0.5, -0.5, -0.5],
			"type": "VEC3"
		},
		"accessor_27": {
			"bufferView": "bufferView_0",
			"byteOffset": 288,
			"byteStride": 0,
			"componentType": 5126,
			"count": 24,
			"max": [6, 1],
			"min": [0, 0],
			"type": "VEC2"
		}
	},
	"animations": {},
	"asset": {
		"generator": "collada2gltf@ceec062e3d5793f2f249f53cbd843aee382ad40b",
		"premultipliedAlpha": true,
		"profile": {
			"api": "WebGL",
			"version": "1.0.2"
		},
		"version": 1
	},
	"bufferViews": {
		"bufferView_0": {
			"buffer": "CesiumTexturedBoxTest",
			"byteLength": 480,
			"byteOffset": 0,
			"target": 34962
		},
		"bufferView_1": {
			"buffer": "CesiumTexturedBoxTest",
			"byteLength": 72,
			"byteOffset": 480,
			"target": 34963
		}
	},
	"buffers": {
		"CesiumTexturedBoxTest": {
			"type": "arraybuffer",
			"byteLength": 552,
			"uri": "data:application/octet-stream;base64,"
		}
	},
	"images": {
		"Image0001": {
			"name": "Image0001",
			"uri": "data:image/png;base64,"
		}
	},
	"materials": {
		"Effect-Texture_0": {
			"values": {
				"diffuse": "texture_Image0001",
				"shininess": 256,
				"specular": [0.2, 0.2, 0.2, 1]
			},
			"technique": "technique1"
		}
	},
	"meshes": {
		"Geometry-mesh002": {
			"name": "Mesh",
			"primitives": [{
					"attributes": {
						"POSITION": "accessor_23",
						"TEXCOORD_0": "accessor_27"
					},
					"indices": "accessor_21",
					"material": "Effect-Texture_0",
					"mode": 4
				}
			]
		}
	},
	"nodes": {
		"rootNode": {
			"children": [],
			"meshes": ["Geometry-mesh002"],
			"matrix": [1, 0, 0, 0, 0, 1, 0, 0, 0, 0, 1, 0, 0, 0, 0, 1]
		}
	},
	"programs": {
		"program0": {
			"attributes": ["a_position", "a_texcoord_0"],
			"fragmentShader": "fragmentShader0",
			"vertexShader": "vertexShader0"
		}
	},
	"samplers": {
		"sampler_0": {
			"magFilter": 9729,
			"minFilter": 9987,
			"wrapS": 10497,
			"wrapT": 10497
		}
	},
	"scene": "defaultScene",
	"scenes": {
		"defaultScene": {
			"nodes": ["rootNode"]
		}
	},
	"shaders": {
		"vertexShader0": {
			"type": 35633,
			"uri": "data:text/plain;base64,"
		},
		"fragmentShader0": {
			"type": 35632,
			"uri": "data:text/plain;base64,"
		}
	},
	"skins": {},
	"techniques": {
		"technique1": {
			"attributes": {
				"a_position": "position",
				"a_texcoord_0": "texcoord_0"
			},
			"parameters": {
				"modelViewMatrix": {
					"semantic": "MODELVIEW",
					"type": 35676
				},
				"projectionMatrix": {
					"semantic": "PROJECTION",
					"type": 35676
				},
				"diffuse": {
					"type": 35678
				},
				"shininess": {
					"type": 5126
				},
				"specular": {
					"type": 35666
				},
				"position": {
					"semantic": "POSITION",
					"type": 35665
				},
				"texcoord_0": {
					"semantic": "TEXCOORD_0",
					"type": 35664
				}
			},
			"program": "program0",
			"states": {
				"enable": [2884, 2929]
			},
			"uniforms": {
				"u_modelViewMatrix": "modelViewMatrix",
				"u_projectionMatrix": "projectionMatrix",
				"u_diffuse": "diffuse",
				"u_shininess": "shininess",
				"u_specular": "specular"
			}
		}
	},
	"textures": {
		"texture_Image0001": {
			"format": 6408,
			"internalFormat": 6408,
			"sampler": "sampler_0",
			"source": "Image0001",
			"target": 3553,
			"type": 5121
		}
	},
	"cameras": {},
	"extensionsUsed": []
}
