{
	"asset":{
		"generator":"Khronos glTF Blender I/O v4.5.47",
		"version":"2.0"
	},
	"extensionsUsed":[
		"KHR_materials_transmission"
	],
	"scene":0,
	"scenes":[
		{
			"name":"Scene",
			"nodes":[
				0
			]
		}
	],
	"nodes":[
		{
			"mesh":0,
			"name":"MZM_D_S_63_Kielich_czasza_edit08w",
			"rotation":[
				0.9999994039535522,
				0,
				0,
				0.0011049070162698627
			]
		}
	],
	"materials":[
		{
			"doubleSided":true,
			"extensions":{
				"KHR_materials_transmission":{
					"transmissionFactor":1,
					"transmissionTexture":{
						"index":0
					}
				}
			},
			"name":"Material.002",
			"pbrMetallicRoughness":{
				"baseColorTexture":{
					"index":1
				},
				"metallicFactor":0
			}
		},
		{
			"doubleSided":true,
			"extensions":{
				"KHR_materials_transmission":{
					"transmissionFactor":1,
					"transmissionTexture":{
						"index":2
					}
				}
			},
			"name":"Material.001",
			"pbrMetallicRoughness":{
				"baseColorTexture":{
					"index":3
				},
				"metallicFactor":0,
				"roughnessFactor":0.5136363506317139
			}
		},
		{
			"doubleSided":true,
			"extensions":{
				"KHR_materials_transmission":{
					"transmissionFactor":1,
					"transmissionTexture":{
						"index":4
					}
				}
			},
			"name":"Material.003",
			"pbrMetallicRoughness":{
				"baseColorTexture":{
					"index":5
				},
				"metallicFactor":0,
				"roughnessFactor":0.5
			}
		}
	],
	"meshes":[
		{
			"name":"MZM_D_S_63_Kielich_czasza_edit08w",
			"primitives":[
				{
					"attributes":{
						"POSITION":0,
						"NORMAL":1,
						"TEXCOORD_0":2
					},
					"indices":3,
					"material":0
				},
				{
					"attributes":{
						"POSITION":4,
						"NORMAL":5,
						"TEXCOORD_0":6
					},
					"indices":7,
					"material":1
				},
				{
					"attributes":{
						"POSITION":8,
						"NORMAL":9,
						"TEXCOORD_0":10
					},
					"indices":11,
					"material":2
				}
			]
		}
	],
	"textures":[
		{
			"sampler":0,
			"source":0
		},
		{
			"sampler":0,
			"source":1
		},
		{
			"sampler":0,
			"source":0
		},
		{
			"sampler":0,
			"source":2
		},
		{
			"sampler":0,
			"source":0
		},
		{
			"sampler":0,
			"source":3
		}
	],
	"images":[
		{
			"mimeType":"image/jpeg",
			"name":"KelchTransparency512",
			"uri":"KelchTransparency512.jpg"
		},
		{
			"mimeType":"image/jpeg",
			"name":"KelchCzaszaColor512",
			"uri":"KelchCzaszaColor512.jpg"
		},
		{
			"mimeType":"image/jpeg",
			"name":"KelchPostawaColor512",
			"uri":"KelchPostawaColor512.jpg"
		},
		{
			"mimeType":"image/jpeg",
			"name":"KelchUchwytColor512",
			"uri":"KelchUchwytColor512.jpg"
		}
	],
	"accessors":[
		{
			"bufferView":0,
			"componentType":5126,
			"count":2662,
			"max":[
				4.855185508728027,
				22.722332000732422,
				4.7259697914123535
			],
			"min":[
				-4.426151275634766,
				13.005043029785156,
				-4.541724681854248
			],
			"type":"VEC3"
		},
		{
			"bufferView":1,
			"componentType":5126,
			"count":2662,
			"type":"VEC3"
		},
		{
			"bufferView":2,
			"componentType":5126,
			"count":2662,
			"type":"VEC2"
		},
		{
			"bufferView":3,
			"componentType":5123,
			"count":14238,
			"type":"SCALAR"
		},
		{
			"bufferView":4,
			"componentType":5126,
			"count":2574,
			"max":[
				5.55973482131958,
				6.148435115814209,
				5.903039455413818
			],
			"min":[
				-5.602358341217041,
				0.3477016091346741,
				-5.83962869644165
			],
			"type":"VEC3"
		},
		{
			"bufferView":5,
			"componentType":5126,
			"count":2574,
			"type":"VEC3"
		},
		{
			"bufferView":6,
			"componentType":5126,
			"count":2574,
			"type":"VEC2"
		},
		{
			"bufferView":7,
			"componentType":5123,
			"count":11751,
			"type":"SCALAR"
		},
		{
			"bufferView":8,
			"componentType":5126,
			"count":3232,
			"max":[
				2.5055148601531982,
				13.120070457458496,
				2.548837423324585
			],
			"min":[
				-2.5851261615753174,
				5.737581729888916,
				-2.497643232345581
			],
			"type":"VEC3"
		},
		{
			"bufferView":9,
			"componentType":5126,
			"count":3232,
			"type":"VEC3"
		},
		{
			"bufferView":10,
			"componentType":5126,
			"count":3232,
			"type":"VEC2"
		},
		{
			"bufferView":11,
			"componentType":5123,
			"count":12078,
			"type":"SCALAR"
		}
	],
	"bufferViews":[
		{
			"buffer":0,
			"byteLength":31944,
			"byteOffset":0,
			"target":34962
		},
		{
			"buffer":0,
			"byteLength":31944,
			"byteOffset":31944,
			"target":34962
		},
		{
			"buffer":0,
			"byteLength":21296,
			"byteOffset":63888,
			"target":34962
		},
		{
			"buffer":0,
			"byteLength":28476,
			"byteOffset":85184,
			"target":34963
		},
		{
			"buffer":0,
			"byteLength":30888,
			"byteOffset":113660,
			"target":34962
		},
		{
			"buffer":0,
			"byteLength":30888,
			"byteOffset":144548,
			"target":34962
		},
		{
			"buffer":0,
			"byteLength":20592,
			"byteOffset":175436,
			"target":34962
		},
		{
			"buffer":0,
			"byteLength":23502,
			"byteOffset":196028,
			"target":34963
		},
		{
			"buffer":0,
			"byteLength":38784,
			"byteOffset":219532,
			"target":34962
		},
		{
			"buffer":0,
			"byteLength":38784,
			"byteOffset":258316,
			"target":34962
		},
		{
			"buffer":0,
			"byteLength":25856,
			"byteOffset":297100,
			"target":34962
		},
		{
			"buffer":0,
			"byteLength":24156,
			"byteOffset":322956,
			"target":34963
		}
	],
	"samplers":[
		{
			"magFilter":9729,
			"minFilter":9987
		}
	],
	"buffers":[
		{
			"byteLength":347112,
			"uri":"KHR_materials_transmission.bin"
		}
	]
}
