{
    "accessors": {
        "accessor_index_0": {
            "bufferView": "bufferView_index",
            "byteOffset": 0,
            "byteStride": 0,
            "componentType": 5123,
            "count": 308640,
            "type": "SCALAR"
        },
        "accessor_position": {
            "bufferView": "bufferView_vertex",
            "byteOffset": 0,
            "byteStride": 32,
            "componentType": 5126,
            "count": 51677,
            "min": [
                -7.0467,
                -5.029932,
                -3.1513
            ],
            "max": [
                7.0467,
                5.029932,
                3.1513
            ],
            "type": "VEC3"
        },
        "accessor_normal": {
            "bufferView": "bufferView_vertex",
            "byteOffset": 12,
            "byteStride": 32,
            "componentType": 5126,
            "count": 51677,
            "type": "VEC3"
        },
        "accessor_uv": {
            "bufferView": "bufferView_vertex",
            "byteOffset": 24,
            "byteStride": 32,
            "componentType": 5126,
            "count": 51677,
            "type": "VEC2"
        }
    },
    "asset": {
        "generator": "OBJ2GLTF",
        "premultipliedAlpha": true,
        "profile": {
            "api": "WebGL",
            "version": "1.0"
        },
        "version": 1
    },
    "buffers": {
        "buffer_chinesedragon": {
            "byteLength": 2270944,
            "type": "arraybuffer",
            "uri": "data:application/octet-stream;base64,"
        }
    },
    "bufferViews": {
        "bufferView_vertex": {
            "buffer": "buffer_chinesedragon",
            "byteLength": 1653664,
            "byteOffset": 0,
            "target": 34962
        },
        "bufferView_index": {
            "buffer": "buffer_chinesedragon",
            "byteLength": 617280,
            "byteOffset": 1653664,
            "target": 34963
        }
    },
    "extensionsUsed": [],
    "images": {},
    "materials": {
        "material_czmDefaultMat": {
            "name": "czmDefaultMat",
            "extensions": {},
            "values": {
                "ambient": [
                    0,
                    0,
                    0,
                    1
                ],
                "diffuse": [
                    0.5,
                    0.5,
                    0.5,
                    1
                ],
                "emission": [
                    0,
                    0,
                    0,
                    1
                ],
                "specular": [
                    0.5,
                    0.5,
                    0.5,
                    1
                ],
                "shininess": 10,
                "transparency": 1
            },
            "technique": "technique0"
        }
    },
    "meshes": {
        "mesh_chinesedragon": {
            "name": "chinesedragon",
            "primitives": [
                {
                    "attributes": {
                        "POSITION": "accessor_position",
                        "NORMAL": "accessor_normal",
                        "TEXCOORD_0": "accessor_uv"
                    },
                    "indices": "accessor_index_0",
                    "material": "material_czmDefaultMat",
                    "mode": 4
                }
            ]
        }
    },
    "nodes": {
        "node_chinesedragon": {
            "children": [],
            "matrix": [
                1,
                0,
                0,
                0,
                0,
                1,
                0,
                0,
                0,
                0,
                1,
                0,
                0,
                0,
                0,
                1
            ],
            "meshes": [
                "mesh_chinesedragon"
            ],
            "name": "chinesedragon"
        }
    },
    "samplers": {
        "sampler_0": {}
    },
    "scene": "scene_chinesedragon",
    "scenes": {
        "scene_chinesedragon": {
            "nodes": [
                "node_chinesedragon"
            ]
        }
    },
    "textures": {},
    "programs": {
        "program0": {
            "attributes": [
                "a_position",
                "a_normal",
                "a_texcoord_0"
            ],
            "fragmentShader": "fragmentShader0",
            "vertexShader": "vertexShader0"
        }
    },
    "shaders": {
        "vertexShader0": {
            "type": 35633,
            "uri": "chinesedragon0VS.glsl"
        },
        "fragmentShader0": {
            "type": 35632,
            "uri": "chinesedragon0FS.glsl"
        }
    },
    "techniques": {
        "technique0": {
            "attributes": {
                "a_position": "position",
                "a_normal": "normal",
                "a_texcoord_0": "texcoord_0"
            },
            "parameters": {
                "modelViewMatrix": {
                    "semantic": "MODELVIEW",
                    "type": 35676
                },
                "normalMatrix": {
                    "semantic": "MODELVIEWINVERSETRANSPOSE",
                    "type": 35675
                },
                "projectionMatrix": {
                    "semantic": "PROJECTION",
                    "type": 35676
                },
                "ambient": {
                    "type": 35666
                },
                "diffuse": {
                    "type": 35666
                },
                "emission": {
                    "type": 35666
                },
                "specular": {
                    "type": 35666
                },
                "shininess": {
                    "type": 5126
                },
                "transparency": {
                    "type": 5126
                },
                "position": {
                    "semantic": "POSITION",
                    "type": 35665
                },
                "normal": {
                    "semantic": "NORMAL",
                    "type": 35665
                },
                "texcoord_0": {
                    "semantic": "TEXCOORD_0",
                    "type": 35664
                }
            },
            "program": "program0",
            "states": {
                "enable": [
                    2884,
                    2929
                ]
            },
            "uniforms": {
                "u_modelViewMatrix": "modelViewMatrix",
                "u_normalMatrix": "normalMatrix",
                "u_projectionMatrix": "projectionMatrix",
                "u_ambient": "ambient",
                "u_diffuse": "diffuse",
                "u_emission": "emission",
                "u_specular": "specular",
                "u_shininess": "shininess",
                "u_transparency": "transparency"
            }
        }
    }
}
