{
  "accessors": [
    {
      "bufferView": 2,
      "byteOffset": 0,
      "componentType": 5123,
      "count": 36,
      "type": "SCALAR",
      "name": "accessor_indices",
      "min": [
        0
      ],
      "max": [
        23
      ]
    },
    {
      "bufferView": 0,
      "byteOffset": 0,
      "componentType": 5126,
      "count": 24,
      "max": [
        0.5,
        0.5,
        0.5
      ],
      "min": [
        -0.5,
        -0.5,
        -0.5
      ],
      "type": "VEC3",
      "name": "accessor_positions"
    },
    {
      "bufferView": 0,
      "byteOffset": 288,
      "componentType": 5126,
      "count": 24,
      "max": [
        1,
        1,
        1
      ],
      "min": [
        -1,
        -1,
        -1
      ],
      "type": "VEC3",
      "name": "accessor_normals"
    },
    {
      "bufferView": 1,
      "byteOffset": 0,
      "componentType": 5126,
      "count": 24,
      "max": [
        6,
        1
      ],
      "min": [
        0,
        0
      ],
      "type": "VEC2",
      "name": "accessor_texcoord"
    }
  ],
  "asset": {
    "generator": "collada2gltf@ceec062e3d5793f2f249f53cbd843aee382ad40b",
    "version": "2.0"
  },
  "bufferViews": [
    {
      "buffer": 0,
      "byteLength": 576,
      "byteOffset": 0,
      "target": 34962,
      "name": "bufferView_0",
      "byteStride": 12
    },
    {
      "buffer": 0,
      "byteLength": 192,
      "byteOffset": 576,
      "target": 34962,
      "name": "bufferView_0",
      "byteStride": 8
    },
    {
      "buffer": 0,
      "byteLength": 72,
      "byteOffset": 768,
      "target": 34963,
      "name": "bufferView_1"
    },
    {
      "buffer": 0,
      "byteOffset": 840,
      "byteLength": 511
    },
    {
      "buffer": 0,
      "byteOffset": 1352,
      "byteLength": 424
    },
    {
      "buffer": 0,
      "byteOffset": 1776,
      "byteLength": 5383
    }
  ],
  "buffers": [
    {
      "name": "CesiumTexturedBoxTest",
      "byteLength": 7160,
      "uri": "data:application/octet-stream;base64,"
    }
  ],
  "images": [
    {
      "name": "Image0001",
      "bufferView": 5,
      "mimeType": "image/png"
    }
  ],
  "materials": [
    {
      "name": "Texture",
      "extensions": {
        "KHR_techniques_webgl": {
          "technique": 0,
          "values": {
            "u_diffuse": {
              "index": 0,
              "texCoord": 0
            },
            "u_shininess": 256,
            "u_specular": [
              0.2,
              0.2,
              0.2,
              1
            ]
          }
        }
      },
      "emissiveFactor": [
        0,
        0,
        0
      ],
      "alphaMode": "OPAQUE",
      "doubleSided": false
    }
  ],
  "meshes": [
    {
      "name": "Mesh",
      "primitives": [
        {
          "attributes": {
            "NORMAL": 2,
            "POSITION": 1,
            "TEXCOORD_0": 3
          },
          "indices": 0,
          "material": 0,
          "mode": 4
        }
      ]
    }
  ],
  "nodes": [
    {
      "name": "rootNode",
      "mesh": 0
    }
  ],
  "samplers": [
    {
      "magFilter": 9729,
      "minFilter": 9987,
      "wrapS": 10497,
      "wrapT": 10497,
      "name": "sampler_0"
    }
  ],
  "scene": 0,
  "scenes": [
    {
      "nodes": [
        0
      ],
      "name": "defaultScene"
    }
  ],
  "textures": [
    {
      "sampler": 0,
      "source": 0,
      "name": "texture_Image0001"
    }
  ],
  "extensionsUsed": [
    "KHR_techniques_webgl"
  ],
  "extensionsRequired": [
    "KHR_techniques_webgl"
  ],
  "extensions": {
    "KHR_techniques_webgl": {
      "programs": [
        {
          "name": "program_0",
          "fragmentShader": 0,
          "vertexShader": 1
        }
      ],
      "shaders": [
        {
          "type": 35632,
          "name": "CesiumTexturedBoxTest0FS",
          "bufferView": 3
        },
        {
          "type": 35633,
          "name": "CesiumTexturedBoxTest0VS",
          "bufferView": 4
        }
      ],
      "techniques": [
        {
          "name": "technique0",
          "program": 0,
          "attributes": {
            "a_normal": {
              "semantic": "NORMAL"
            },
            "a_position": {
              "semantic": "POSITION"
            },
            "a_texcoord0": {
              "semantic": "TEXCOORD_0"
            }
          },
          "uniforms": {
            "u_diffuse": {
              "type": 35678
            },
            "u_modelViewMatrix": {
              "type": 35676,
              "semantic": "MODELVIEW"
            },
            "u_normalMatrix": {
              "type": 35675,
              "semantic": "MODELVIEWINVERSETRANSPOSE"
            },
            "u_projectionMatrix": {
              "type": 35676,
              "semantic": "PROJECTION"
            },
            "u_shininess": {
              "type": 5126
            },
            "u_specular": {
              "type": 35666
            }
          }
        }
      ]
    }
  }
}
