{"accessors":{"accessor_21":{"bufferView":"bufferView_1","byteOffset":0,"byteStride":0,"componentType":5123,"count":36,"type":"SCALAR","min":[0],"max":[23]},"accessor_23":{"bufferView":"bufferView_0","byteOffset":0,"byteStride":0,"componentType":5126,"count":24,"max":[0.5,0.5,0.5],"min":[-0.5,-0.5,-0.5],"type":"VEC3"},"accessor_index_0":{"bufferView":"bufferView_1","byteOffset":72,"byteStride":0,"componentType":5123,"count":12,"type":"SCALAR","min":[0],"max":[3]},"accessor_position":{"bufferView":"bufferView_0","byteOffset":288,"byteStride":0,"componentType":5126,"count":4,"min":[0,0,0],"max":[1,1,1],"type":"VEC3"}},"animations":{},"asset":{"generator":"collada2gltf@027f74366341d569dea42e9a68b7104cc3892054","premultipliedAlpha":true,"profile":{"api":"WebGL","version":"1.0.2"},"version":"1.0"},"bufferViews":{"bufferView_0":{"buffer":"buffer_0","byteLength":336,"byteOffset":0,"target":34962},"bufferView_1":{"buffer":"buffer_0","byteLength":96,"byteOffset":336,"target":34963}},"buffers":{"buffer_0":{"type":"arraybuffer","byteLength":432,"uri":"data:application/octet-stream;base64,"}},"materials":{"Effect-Red_0":{"values":{"diffuse":[0.8,0,0,1],"shininess":256,"specular":[0.2,0.2,0.2,1]},"technique":"technique1"},"Effect-Blue_0":{"values":{"diffuse":[0,0,0.8,1],"shininess":256,"specular":[0.2,0.2,0.2,1]},"technique":"technique1"}},"meshes":{"Geometry-mesh002":{"name":"Mesh","primitives":[{"attributes":{"POSITION":"accessor_23"},"indices":"accessor_21","material":"Effect-Red_0","mode":4},{"attributes":{"POSITION":"accessor_position"},"indices":"accessor_index_0","material":"Effect-Blue_0","mode":4}]}},"nodes":{"rootNode":{"children":["intermediateNode"],"meshes":["Geometry-mesh002"],"matrix":[1,0,0,0,0,1,0,0,0,0,1,0,0,0,0,1]},"intermediateNode":{"children":["copyNode"],"translation":[0.5,0,0],"rotation":[0,0,0,1],"scale":[1,1,1]},"copyNode":{"children":[],"meshes":["Geometry-mesh002"],"matrix":[0.5,0,0,0,0,0.5,0,0,0,0,0.5,0,0.5,0,0,1]}},"programs":{"program0":{"attributes":["a_position"],"fragmentShader":"fragmentShader0","vertexShader":"vertexShader0"}},"scene":"defaultScene","scenes":{"defaultScene":{"nodes":["rootNode"]}},"shaders":{"vertexShader0":{"type":35633,"uri":"data:text/plain;base64,"},"fragmentShader0":{"type":35632,"uri":"data:text/plain;base64,"}},"skins":{},"techniques":{"technique1":{"attributes":{"a_position":"position"},"parameters":{"modelViewMatrix":{"semantic":"MODELVIEW","type":35676},"projectionMatrix":{"semantic":"PROJECTION","type":35676},"diffuse":{"type":35666},"shininess":{"type":5126},"specular":{"type":35666},"position":{"semantic":"POSITION","type":35665}},"program":"program0","states":{"enable":[2884,2929]},"uniforms":{"u_modelViewMatrix":"modelViewMatrix","u_projectionMatrix":"projectionMatrix","u_diffuse":"diffuse","u_shininess":"shininess","u_specular":"specular"}}},"extensionsUsed":[],"cameras":{},"images":{},"samplers":{},"textures":{}}
