{
  "accessors": {
    "accessor_index_0": {
      "bufferView": "bufferView_index",
      "byteOffset": 0,
      "byteStride": 0,
      "componentType": 5123,
      "count": 308640,
      "type": "SCALAR"
    },
    "accessor_position": {
      "bufferView": "bufferView_vertex",
      "byteOffset": 0,
      "byteStride": 12,
      "componentType": 5126,
      "count": 51446,
      "min": [
        -7.0467,
        -5.029932,
        -3.151301
      ],
      "max": [
        7.0467,
        5.029932,
        3.151299
      ],
      "type": "VEC3"
    }
  },
  "asset": {
    "generator": "OBJ2GLTF",
    "premultipliedAlpha": true,
    "profile": {
      "api": "WebGL",
      "version": "1.0"
    },
    "version": 1
  },
  "buffers": {
    "dragon_buffer": {
      "byteLength": 1234632,
      "type": "arraybuffer",
      "uri": "data:application/octet-stream;base64,"
    }
  },
  "bufferViews": {
    "bufferView_vertex": {
      "buffer": "dragon_buffer",
      "byteLength": 617352,
      "byteOffset": 0,
      "target": 34962
    },
    "bufferView_index": {
      "buffer": "dragon_buffer",
      "byteLength": 617280,
      "byteOffset": 617352,
      "target": 34963
    }
  },
  "images": {},
  "materials": {
    "material_czmDefaultMat": {
      "name": "czmDefaultMat",
      "values": {
        "ambient": [
          0,
          0,
          0,
          1
        ],
        "diffuse": [
          0.5,
          0.5,
          0.5,
          1
        ],
        "emission": [
          0,
          0,
          0,
          1
        ],
        "specular": [
          0,
          0,
          0,
          1
        ],
        "shininess": 0
      }
    }
  },
  "meshes": {
    "mesh_dragon": {
      "name": "dragon",
      "primitives": [
        {
          "attributes": {
            "POSITION": "accessor_position"
          },
          "indices": "accessor_index_0",
          "material": "material_czmDefaultMat",
          "mode": 4
        }
      ]
    }
  },
  "nodes": {
    "node_dragon": {
      "children": [],
      "matrix": [
        1,
        0,
        0,
        0,
        0,
        1,
        0,
        0,
        0,
        0,
        1,
        0,
        0,
        0,
        0,
        1
      ],
      "meshes": [
        "mesh_dragon"
      ],
      "name": "dragon"
    }
  },
  "samplers": {
    "sampler_0": {}
  },
  "scene": "scene_dragon",
  "scenes": {
    "scene_dragon": {
      "nodes": [
        "node_dragon"
      ]
    }
  },
  "textures": {}
}
