{
  "accessors": {
    "accessor_index_0": {
      "bufferView": "bufferView_index",
      "byteOffset": 0,
      "byteStride": 0,
      "componentType": 5125,
      "count": 8640,
      "type": "SCALAR",
      "min": [
        null
      ],
      "max": [
        null
      ]
    },
    "accessor_index_1": {
      "bufferView": "bufferView_index",
      "byteOffset": 34560,
      "byteStride": 0,
      "componentType": 5125,
      "count": 300000,
      "type": "SCALAR",
      "min": [
        null
      ],
      "max": [
        null
      ]
    },
    "accessor_position": {
      "bufferView": "bufferView_vertex",
      "byteOffset": 0,
      "byteStride": 20,
      "componentType": 5126,
      "count": 84569,
      "min": [
        -7.0467,
        -5.029932,
        -3.151301
      ],
      "max": [
        7.0467,
        5.029932,
        3.151299
      ],
      "type": "VEC3"
    },
    "accessor_uv": {
      "bufferView": "bufferView_vertex",
      "byteOffset": 12,
      "byteStride": 20,
      "componentType": 5126,
      "count": 84569,
      "type": "VEC2",
      "min": [
        0,
        0
      ],
      "max": [
        1,
        1
      ]
    }
  },
  "asset": {
    "generator": "OBJ2GLTF",
    "premultipliedAlpha": true,
    "profile": {
      "api": "WebGL",
      "version": "1.0"
    },
    "version": "1.0"
  },
  "buffers": {
    "dragon_uvs_no_normals_buffer": {
      "byteLength": 2925940,
      "type": "arraybuffer",
      "uri": "data:application/octet-stream;base64,"
    }
  },
  "bufferViews": {
    "bufferView_vertex": {
      "buffer": "dragon_uvs_no_normals_buffer",
      "byteLength": 1691380,
      "byteOffset": 0,
      "target": 34962
    },
    "bufferView_index": {
      "buffer": "dragon_uvs_no_normals_buffer",
      "byteLength": 1234560,
      "byteOffset": 1691380,
      "target": 34963
    }
  },
  "images": {},
  "materials": {
    "material_01_-_Default": {
      "name": "01_-_Default",
      "extensions": {},
      "values": {
        "ambient": [
          1,
          1,
          1,
          1
        ],
        "diffuse": [
          0.64,
          0.64,
          0.64,
          1
        ],
        "doubleSided": false,
        "emission": [
          0,
          0,
          0,
          1
        ],
        "specular": [
          0.5,
          0.5,
          0.5,
          1
        ],
        "shininess": 96.078431,
        "transparency": 1,
        "transparent": false
      },
      "technique": "technique0"
    },
    "material_03_-_Default": {
      "name": "03_-_Default",
      "extensions": {},
      "values": {
        "ambient": [
          1,
          1,
          1,
          1
        ],
        "diffuse": [
          0.64,
          0.64,
          0.64,
          1
        ],
        "doubleSided": false,
        "emission": [
          0,
          0,
          0,
          1
        ],
        "specular": [
          0.5,
          0.5,
          0.5,
          1
        ],
        "shininess": 96.078431,
        "transparency": 1,
        "transparent": false
      },
      "technique": "technique0"
    }
  },
  "meshes": {
    "mesh_dragon_uvs_no_normals": {
      "name": "dragon_uvs_no_normals",
      "primitives": [
        {
          "attributes": {
            "POSITION": "accessor_position",
            "TEXCOORD_0": "accessor_uv"
          },
          "indices": "accessor_index_0",
          "material": "material_03_-_Default",
          "mode": 4
        },
        {
          "attributes": {
            "POSITION": "accessor_position",
            "TEXCOORD_0": "accessor_uv"
          },
          "indices": "accessor_index_1",
          "material": "material_01_-_Default",
          "mode": 4
        }
      ]
    }
  },
  "nodes": {
    "node_dragon_uvs_no_normals": {
      "children": [],
      "matrix": [
        1,
        0,
        0,
        0,
        0,
        1,
        0,
        0,
        0,
        0,
        1,
        0,
        0,
        0,
        0,
        1
      ],
      "meshes": [
        "mesh_dragon_uvs_no_normals"
      ],
      "name": "dragon_uvs_no_normals"
    }
  },
  "samplers": {},
  "scene": "scene_dragon_uvs_no_normals",
  "scenes": {
    "scene_dragon_uvs_no_normals": {
      "nodes": [
        "node_dragon_uvs_no_normals"
      ]
    }
  },
  "textures": {},
  "extensionsUsed": [],
  "animations": {},
  "cameras": {},
  "extensions": {},
  "programs": {
    "program0": {
      "attributes": [
        "a_position",
        "a_normal"
      ],
      "fragmentShader": "fragmentShader0",
      "vertexShader": "vertexShader0"
    }
  },
  "shaders": {
    "vertexShader0": {
      "type": 35633,
      "uri": "data:text/plain;base64,"
    },
    "fragmentShader0": {
      "type": 35632,
      "uri": "data:text/plain;base64,"
    }
  },
  "skins": {},
  "techniques": {
    "technique0": {
      "attributes": {
        "a_position": "position",
        "a_normal": "normal"
      },
      "parameters": {
        "modelViewMatrix": {
          "semantic": "MODELVIEW",
          "type": 35676
        },
        "projectionMatrix": {
          "semantic": "PROJECTION",
          "type": 35676
        },
        "normalMatrix": {
          "semantic": "MODELVIEWINVERSETRANSPOSE",
          "type": 35675
        },
        "ambient": {
          "type": 35666
        },
        "diffuse": {
          "type": 35666
        },
        "emission": {
          "type": 35666
        },
        "specular": {
          "type": 35666
        },
        "shininess": {
          "type": 5126
        },
        "transparency": {
          "type": 5126
        },
        "position": {
          "semantic": "POSITION",
          "type": 35665
        },
        "normal": {
          "semantic": "NORMAL",
          "type": 35665
        }
      },
      "program": "program0",
      "states": {
        "enable": [
          2884,
          2929
        ]
      },
      "uniforms": {
        "u_modelViewMatrix": "modelViewMatrix",
        "u_projectionMatrix": "projectionMatrix",
        "u_normalMatrix": "normalMatrix",
        "u_ambient": "ambient",
        "u_diffuse": "diffuse",
        "u_emission": "emission",
        "u_specular": "specular",
        "u_shininess": "shininess",
        "u_transparency": "transparency"
      }
    }
  }
}